<svg xmlns="http://www.w3.org/2000/svg" xmlns:xlink="http://www.w3.org/1999/xlink" width="1920" height="1080" viewBox="0 0 1920 1080">
  <defs>
    <linearGradient id="linear-gradient" x1="0.5" y1="1" x2="0.5" gradientUnits="objectBoundingBox">
      <stop offset="0" stop-color="#7094fb"/>
      <stop offset="1" stop-color="#f31e61"/>
    </linearGradient>
    <linearGradient id="linear-gradient-3" x1="0.124" y1="0.856" x2="0.937" y2="0.071" gradientUnits="objectBoundingBox">
      <stop offset="0" stop-color="#f31e61"/>
      <stop offset="1" stop-color="#7094fb"/>
    </linearGradient>
    <clipPath id="clip-Web_1920_1">
      <rect width="1920" height="1080"/>
    </clipPath>
  </defs>
  <g id="Web_1920_1" data-name="Web 1920 – 1" clip-path="url(#clip-Web_1920_1)">
    <rect width="1920" height="1080" fill="#0b152d"/>
    <g id="bubbles" transform="translate(763.875 0)">
      <path id="Path_160" data-name="Path 160" d="M771.11,975.853c246.612-7.825,349.449-261.157,325.708-547.689C1082.36,253.9,1004.289,92.7,862.153,0H267.025C205.357,39.18,158.637,86.991,122.112,130.736-24.764,306.619-43.371,603.907,89.377,756.177S486.9,984.87,771.11,975.853Z" transform="translate(0)" opacity="0.25" fill="url(#linear-gradient)"/>
      <path id="Path_161" data-name="Path 161" d="M767.845,1030.231c208.632,88.831,496.417,21.275,603.653-148.2q9.468-14.962,17.792-30.987V177.526c-.517-1.577-1.03-3.154-1.551-4.732C1360.138,89.865,1307.8,33.476,1239.794,0H834.008q-29.353,9.419-58.75,20.981c-238.743,94.04-411.165,311.684-346.645,602.887C485.011,878.457,645.262,978.039,767.845,1030.231Z" transform="translate(-233.166 0)" opacity="0.25" fill="url(#linear-gradient)"/>
      <path id="Path_162" data-name="Path 162" d="M1216.2,824.982q2.515-7.01,4.973-14.155V463.406c-27.395-44.608-71.28-83.543-137.667-112.7C858.444,251.848,315.1,321.336,157.5,629.691c-127.713,249.915,57.83,541,285.687,639.1h333.2C988.637,1188.451,1159.482,982.851,1216.2,824.982Z" transform="translate(-65.053 -173.514)" opacity="0.25" fill="url(#linear-gradient-3)"/>
    </g>
    <g id="moon" transform="translate(95.89 190.368)">
      <g id="Stars" transform="translate(6.255 0)">
        <g id="Group_242" data-name="Group 242">
          <g id="Group_231" data-name="Group 231" transform="translate(0 77.649)">
            <path id="Path_485" data-name="Path 485" d="M90.174,252.154l1.907.255-1.888.37a2.832,2.832,0,0,0-2.262,2.4l-.255,1.907-.37-1.888a2.832,2.832,0,0,0-2.4-2.262l-1.907-.255,1.888-.37a2.833,2.833,0,0,0,2.263-2.4L87.4,248l.37,1.888A2.832,2.832,0,0,0,90.174,252.154Z" transform="translate(-80.183 -245.409)" fill="#407bff"/>
            <path id="Path_486" data-name="Path 486" d="M91.868,249.647h0a.675.675,0,0,1,.04,1.332h0a7.424,7.424,0,0,0-5.929,6.3h0a.675.675,0,0,1-1.332.04h0a7.424,7.424,0,0,0-6.3-5.929h0a.675.675,0,0,1-.041-1.332h0a7.424,7.424,0,0,0,5.929-6.3h0a.675.675,0,0,1,1.332-.041h0A7.425,7.425,0,0,0,91.868,249.647Z" transform="translate(-77.76 -243.172)" fill="#407bff" opacity="0.2"/>
          </g>
          <g id="Group_232" data-name="Group 232" transform="translate(141.177 29.54)">
            <path id="Path_487" data-name="Path 487" d="M352.809,162.431l1.881.233-1.856.382a2.792,2.792,0,0,0-2.207,2.391l-.233,1.881-.382-1.856a2.791,2.791,0,0,0-2.391-2.207l-1.881-.233,1.856-.382a2.792,2.792,0,0,0,2.207-2.391l.233-1.881.382,1.856A2.792,2.792,0,0,0,352.809,162.431Z" transform="translate(-342.973 -155.812)" fill="#407bff"/>
            <path id="Path_488" data-name="Path 488" d="M354.478,159.924h0a.665.665,0,0,1,.053,1.312h0a7.315,7.315,0,0,0-5.783,6.264h0a.665.665,0,0,1-1.312.053h0a7.315,7.315,0,0,0-6.264-5.783h0a.665.665,0,0,1-.053-1.312h0a7.315,7.315,0,0,0,5.783-6.264h0a.665.665,0,0,1,1.312-.053h0A7.315,7.315,0,0,0,354.478,159.924Z" transform="translate(-340.589 -153.61)" fill="#407bff" opacity="0.2"/>
          </g>
          <g id="Group_233" data-name="Group 233" transform="translate(80.84 58.643)">
            <path id="Path_489" data-name="Path 489" d="M232.122,210.558l.6.058-.585.137a.884.884,0,0,0-.678.776l-.057.6-.137-.585a.884.884,0,0,0-.776-.678l-.6-.057.585-.137a.884.884,0,0,0,.678-.776l.058-.6.137.585A.884.884,0,0,0,232.122,210.558Z" transform="translate(-229.014 -208.486)" fill="#407bff"/>
            <path id="Path_490" data-name="Path 490" d="M232.65,209.73h0a.211.211,0,0,1,.028.415h0a2.318,2.318,0,0,0-1.778,2.034h0a.211.211,0,0,1-.415.028h0a2.318,2.318,0,0,0-2.034-1.778h0a.211.211,0,0,1-.028-.415h0a2.318,2.318,0,0,0,1.778-2.034h0a.211.211,0,0,1,.415-.028h0A2.319,2.319,0,0,0,232.65,209.73Z" transform="translate(-228.26 -207.789)" fill="#407bff" opacity="0.2"/>
          </g>
          <g id="Group_234" data-name="Group 234" transform="translate(176.405 116.515)">
            <path id="Path_491" data-name="Path 491" d="M410.031,318.3l.6.057-.585.137a.884.884,0,0,0-.678.776l-.058.6-.137-.585a.884.884,0,0,0-.776-.678l-.6-.057.585-.137a.885.885,0,0,0,.678-.776l.057-.6.137.585A.886.886,0,0,0,410.031,318.3Z" transform="translate(-406.924 -316.226)" fill="#407bff"/>
            <path id="Path_492" data-name="Path 492" d="M410.561,317.469h0a.211.211,0,0,1,.028.415h0a2.318,2.318,0,0,0-1.778,2.034h0a.211.211,0,0,1-.415.028h0a2.317,2.317,0,0,0-2.034-1.778h0a.211.211,0,0,1-.028-.415h0a2.317,2.317,0,0,0,1.778-2.034h0a.211.211,0,0,1,.415-.028h0A2.317,2.317,0,0,0,410.561,317.469Z" transform="translate(-406.172 -315.529)" fill="#407bff" opacity="0.2"/>
          </g>
          <g id="Group_235" data-name="Group 235" transform="translate(114.222 116.641)">
            <path id="Path_493" data-name="Path 493" d="M294.284,318.574l.595.084-.59.112a.885.885,0,0,0-.712.746l-.084.595-.112-.59a.884.884,0,0,0-.746-.712l-.595-.084.59-.112a.885.885,0,0,0,.712-.746l.084-.595.112.59A.885.885,0,0,0,294.284,318.574Z" transform="translate(-291.163 -316.462)" fill="#407bff"/>
            <path id="Path_494" data-name="Path 494" d="M294.814,317.8h0a.211.211,0,0,1,.01.416h0a2.317,2.317,0,0,0-1.864,1.955h0a.211.211,0,0,1-.416.01h0a2.318,2.318,0,0,0-1.955-1.864h0a.211.211,0,0,1-.01-.416h0a2.317,2.317,0,0,0,1.864-1.955h0a.211.211,0,0,1,.416-.01h0A2.317,2.317,0,0,0,294.814,317.8Z" transform="translate(-290.407 -315.764)" fill="#407bff" opacity="0.2"/>
          </g>
          <g id="Group_236" data-name="Group 236" transform="translate(129.071 18.598)">
            <path id="Path_495" data-name="Path 495" d="M321.94,136.092l.589.116-.6.08a.885.885,0,0,0-.751.706l-.115.589-.08-.6a.885.885,0,0,0-.706-.751l-.589-.116.6-.079a.885.885,0,0,0,.751-.706l.115-.589.08.6A.883.883,0,0,0,321.94,136.092Z" transform="translate(-318.811 -133.936)" fill="#407bff"/>
            <path id="Path_496" data-name="Path 496" d="M322.468,135.389h0a.211.211,0,0,1-.012.416h0a2.318,2.318,0,0,0-1.967,1.852h0a.211.211,0,0,1-.416-.012h0a2.317,2.317,0,0,0-1.852-1.967h0a.211.211,0,0,1,.012-.416h0a2.317,2.317,0,0,0,1.967-1.852h0a.211.211,0,0,1,.416.012h0A2.319,2.319,0,0,0,322.468,135.389Z" transform="translate(-318.051 -133.239)" fill="#407bff" opacity="0.2"/>
          </g>
          <g id="Group_237" data-name="Group 237" transform="translate(48.409 9.724)">
            <path id="Path_497" data-name="Path 497" d="M171.744,119.487l.6.057-.585.137a.884.884,0,0,0-.678.776l-.057.6-.137-.585a.884.884,0,0,0-.776-.678l-.6-.057.585-.137a.884.884,0,0,0,.678-.776l.058-.6.137.585A.885.885,0,0,0,171.744,119.487Z" transform="translate(-168.636 -117.415)" fill="#407bff"/>
            <path id="Path_498" data-name="Path 498" d="M172.272,118.658h0a.211.211,0,0,1,.028.415h0a2.318,2.318,0,0,0-1.778,2.034h0a.211.211,0,0,1-.415.028h0a2.317,2.317,0,0,0-2.034-1.778h0a.211.211,0,0,1-.028-.415h0a2.318,2.318,0,0,0,1.778-2.034h0a.211.211,0,0,1,.415-.028h0A2.317,2.317,0,0,0,172.272,118.658Z" transform="translate(-167.882 -116.717)" fill="#407bff" opacity="0.2"/>
          </g>
          <g id="Group_238" data-name="Group 238" transform="translate(156.963 99.025)">
            <path id="Path_499" data-name="Path 499" d="M376.484,287.715l.992.169-.993.158a1.481,1.481,0,0,0-1.227,1.215l-.169.992-.159-.993a1.482,1.482,0,0,0-1.214-1.227l-.992-.169.993-.158a1.482,1.482,0,0,0,1.227-1.215l.169-.991.158.993A1.481,1.481,0,0,0,376.484,287.715Z" transform="translate(-371.248 -284.137)" fill="#407bff"/>
            <path id="Path_500" data-name="Path 500" d="M377.37,286.481h0a.353.353,0,0,1,0,.7h0a3.88,3.88,0,0,0-3.215,3.182h0a.353.353,0,0,1-.7,0h0a3.882,3.882,0,0,0-3.182-3.215h0a.353.353,0,0,1,0-.7h0a3.882,3.882,0,0,0,3.215-3.182h0a.353.353,0,0,1,.7,0h0A3.883,3.883,0,0,0,377.37,286.481Z" transform="translate(-369.978 -282.968)" fill="#407bff" opacity="0.2"/>
          </g>
          <g id="Group_239" data-name="Group 239" transform="translate(180.984 3.082)">
            <path id="Path_501" data-name="Path 501" d="M421.173,109.011l1,.109-.982.217a1.482,1.482,0,0,0-1.153,1.285l-.109,1-.217-.982a1.482,1.482,0,0,0-1.285-1.153l-1-.109.982-.217a1.482,1.482,0,0,0,1.153-1.285l.109-1,.217.982A1.482,1.482,0,0,0,421.173,109.011Z" transform="translate(-415.96 -105.52)" fill="#407bff"/>
            <path id="Path_502" data-name="Path 502" d="M422.057,107.65h0a.353.353,0,0,1,.037.7h0a3.882,3.882,0,0,0-3.02,3.368h0a.353.353,0,0,1-.7.038h0a3.882,3.882,0,0,0-3.368-3.02h0a.353.353,0,0,1-.038-.7h0a3.882,3.882,0,0,0,3.02-3.368h0a.353.353,0,0,1,.7-.038h0A3.882,3.882,0,0,0,422.057,107.65Z" transform="translate(-414.697 -104.352)" fill="#407bff" opacity="0.2"/>
          </g>
          <g id="Group_240" data-name="Group 240" transform="translate(61.078)">
            <path id="Path_503" data-name="Path 503" d="M197.329,102.9l.892.158-.9.136a1.334,1.334,0,0,0-1.113,1.086l-.158.892-.136-.9a1.334,1.334,0,0,0-1.086-1.113L193.94,103l.9-.136a1.334,1.334,0,0,0,1.113-1.086l.158-.892.136.9A1.337,1.337,0,0,0,197.329,102.9Z" transform="translate(-192.613 -99.667)" fill="#407bff"/>
            <path id="Path_504" data-name="Path 504" d="M198.127,101.8h0a.318.318,0,0,1-.008.627h0a3.494,3.494,0,0,0-2.916,2.845h0a.318.318,0,0,1-.627-.008h0a3.494,3.494,0,0,0-2.845-2.916h0a.318.318,0,0,1,.008-.627h0a3.494,3.494,0,0,0,2.916-2.845h0a.318.318,0,0,1,.627.008h0A3.5,3.5,0,0,0,198.127,101.8Z" transform="translate(-191.47 -98.615)" fill="#407bff" opacity="0.2"/>
          </g>
          <g id="Group_241" data-name="Group 241" transform="translate(1.003 126.037)">
            <path id="Path_505" data-name="Path 505" d="M83.515,336.108l.59.113-.6.082a.885.885,0,0,0-.748.709l-.113.59-.082-.6a.885.885,0,0,0-.709-.748l-.59-.113.6-.082a.885.885,0,0,0,.748-.709l.113-.59.082.6A.884.884,0,0,0,83.515,336.108Z" transform="translate(-80.386 -333.955)" fill="#407bff"/>
            <path id="Path_506" data-name="Path 506" d="M84.043,335.4h0a.211.211,0,0,1-.011.416h0a2.318,2.318,0,0,0-1.961,1.858h0a.211.211,0,0,1-.416-.011h0A2.317,2.317,0,0,0,79.8,335.7h0a.211.211,0,0,1,.011-.416h0a2.317,2.317,0,0,0,1.961-1.858h0a.211.211,0,0,1,.416.011h0A2.318,2.318,0,0,0,84.043,335.4Z" transform="translate(-79.627 -333.257)" fill="#407bff" opacity="0.2"/>
          </g>
        </g>
      </g>
      <g id="Clouds" transform="translate(19.669 12.755)">
        <g id="Group_247" data-name="Group 247" transform="translate(0)">
          <g id="Group_245" data-name="Group 245">
            <g id="Group_243" data-name="Group 243">
              <path id="Path_507" data-name="Path 507" d="M166.449,156.956a13.476,13.476,0,0,0-4.056-13.023,11.925,11.925,0,0,0-13.364-1.451,10.706,10.706,0,0,0-4.787,12.324,9.292,9.292,0,0,0-9.25-1.146,6.766,6.766,0,0,0-9.035-8.931,16.135,16.135,0,0,0-6.5-13.382,13.825,13.825,0,0,0-14.628-.828,12.114,12.114,0,0,0-5.545,13.28c-3.46.076-7.056,1.183-9.371,3.755s-2.94,6.8-.81,9.524c-4.6-1.63-12.7.332-13.927,7.782l103.47-3.317C177.074,156.826,170.741,154.442,166.449,156.956Z" transform="translate(-75.174 -128.807)" fill="#407bff"/>
            </g>
            <g id="Group_244" data-name="Group 244" opacity="0.8">
              <path id="Path_508" data-name="Path 508" d="M166.449,156.956a13.476,13.476,0,0,0-4.056-13.023,11.925,11.925,0,0,0-13.364-1.451,10.706,10.706,0,0,0-4.787,12.324,9.292,9.292,0,0,0-9.25-1.146,6.766,6.766,0,0,0-9.035-8.931,16.135,16.135,0,0,0-6.5-13.382,13.825,13.825,0,0,0-14.628-.828,12.114,12.114,0,0,0-5.545,13.28c-3.46.076-7.056,1.183-9.371,3.755s-2.94,6.8-.81,9.524c-4.6-1.63-12.7.332-13.927,7.782l103.47-3.317C177.074,156.826,170.741,154.442,166.449,156.956Z" transform="translate(-75.174 -128.807)" fill="#fff"/>
            </g>
          </g>
          <g id="Group_246" data-name="Group 246" transform="translate(0 0.005)" opacity="0.3">
            <path id="Path_509" data-name="Path 509" d="M136.81,162.89s-38.1-.869-44.816-.368a4.8,4.8,0,0,1,5.346-4.689,9.071,9.071,0,0,1,8.434-12.842,11.08,11.08,0,0,1,6.608-16.137,13.029,13.029,0,0,0-7.555,1.67,12.114,12.114,0,0,0-5.545,13.28c-3.46.076-7.056,1.183-9.371,3.755s-2.94,6.8-.81,9.524c-4.6-1.63-12.7.332-13.927,7.782l61.636-1.976Z" transform="translate(-75.174 -128.815)" fill="#407bff"/>
          </g>
        </g>
        <g id="Group_252" data-name="Group 252" transform="translate(116.47 22.049)">
          <g id="Group_250" data-name="Group 250" transform="translate(0.001)">
            <g id="Group_248" data-name="Group 248">
              <path id="Path_510" data-name="Path 510" d="M356.648,223.231a13.478,13.478,0,0,0-3.505-13.182,11.925,11.925,0,0,0-13.291-2.011,10.7,10.7,0,0,0-5.3,12.112,9.293,9.293,0,0,0-9.194-1.534,6.766,6.766,0,0,0-8.652-9.3,16.136,16.136,0,0,0-5.935-13.643,13.827,13.827,0,0,0-14.581-1.442,12.114,12.114,0,0,0-6.1,13.036c-3.46-.069-7.1.885-9.52,3.358s-3.223,6.667-1.21,9.482c-4.525-1.821-12.7-.2-14.242,7.19l103.518,1.031C367.269,223.546,361.042,220.9,356.648,223.231Z" transform="translate(-265.121 -192.781)" fill="#407bff"/>
            </g>
            <g id="Group_249" data-name="Group 249" opacity="0.8">
              <path id="Path_511" data-name="Path 511" d="M356.648,223.231a13.478,13.478,0,0,0-3.505-13.182,11.925,11.925,0,0,0-13.291-2.011,10.7,10.7,0,0,0-5.3,12.112,9.293,9.293,0,0,0-9.194-1.534,6.766,6.766,0,0,0-8.652-9.3,16.136,16.136,0,0,0-5.935-13.643,13.827,13.827,0,0,0-14.581-1.442,12.114,12.114,0,0,0-6.1,13.036c-3.46-.069-7.1.885-9.52,3.358s-3.223,6.667-1.21,9.482c-4.525-1.821-12.7-.2-14.242,7.19l103.518,1.031C367.269,223.546,361.042,220.9,356.648,223.231Z" transform="translate(-265.121 -192.781)" fill="#fff"/>
            </g>
          </g>
          <g id="Group_251" data-name="Group 251" transform="translate(0 0.004)" opacity="0.3">
            <path id="Path_512" data-name="Path 512" d="M326.785,227.914s-38.032-2.468-44.761-2.25a4.8,4.8,0,0,1,5.538-4.461,9.071,9.071,0,0,1,8.966-12.476,11.08,11.08,0,0,1,7.28-15.845,13.029,13.029,0,0,0-7.618,1.351,12.114,12.114,0,0,0-6.1,13.036c-3.461-.069-7.1.885-9.52,3.358s-3.223,6.667-1.21,9.482c-4.525-1.822-12.7-.2-14.242,7.19l61.665.614Z" transform="translate(-265.12 -192.788)" fill="#407bff"/>
          </g>
        </g>
      </g>
      <g id="Moon-2" data-name="Moon" transform="translate(24.94 14.16)">
        <g id="Group_278" data-name="Group 278">
          <g id="Group_273" data-name="Group 273">
            <path id="Path_518" data-name="Path 518" d="M210.093,246.6c-28.221-.722-54.367-25.765-55.215-57.146-.772-28.573,17.207-62.186,48.927-66.282a74.987,74.987,0,0,0-8.931-.537A74.227,74.227,0,1,0,262.33,227.865C250.49,242.459,230.343,247.115,210.093,246.6Z" transform="translate(-120.647 -122.632)" fill="#407bff"/>
            <path id="Path_519" data-name="Path 519" d="M210.093,246.6c-28.221-.722-54.367-25.765-55.215-57.146-.772-28.573,17.207-62.186,48.927-66.282a74.987,74.987,0,0,0-8.931-.537A74.227,74.227,0,1,0,262.33,227.865C250.49,242.459,230.343,247.115,210.093,246.6Z" transform="translate(-120.647 -122.632)" fill="#fff" opacity="0.3"/>
            <g id="Group_265" data-name="Group 265" transform="translate(0 16.53)">
              <g id="Group_261" data-name="Group 261" transform="translate(0 21.574)" opacity="0.5">
                <path id="Path_520" data-name="Path 520" d="M149.754,263.1c.567-2.582,2.508-4.61,3.719-6.96s1.418-5.742-.806-7.17c-1.311-.842-3.005-.687-4.509-1.092-3.117-.837-5.021-3.895-6.613-6.7a5.977,5.977,0,0,1-.961-2.528c-.118-2.072,1.9-3.65,3.881-4.271s4.155-.707,5.952-1.744l-1.223-2.047c1.672-.347,3.756,1.255,4.913,0a2.166,2.166,0,0,0,.445-1.6c-.195-3.385-3.84-5.484-5.111-8.628-.892-2.2-.532-4.72-1.13-7.022s-3.029-4.544-5.151-3.468a10.488,10.488,0,0,0-1.593,1.247,5.356,5.356,0,0,1-6.883-.458,28.152,28.152,0,0,1-4.664-9.015,74.3,74.3,0,0,0-.146,71.987c2.237.034,4.514-1.107,5.161-3.211.264-.86.242-1.782.429-2.661.585-2.753,3.2-4.726,5.954-5.32A18,18,0,0,1,149.754,263.1Z" transform="translate(-120.646 -201.632)" fill="#407bff"/>
              </g>
              <g id="Group_262" data-name="Group 262" transform="translate(28.31)" opacity="0.3">
                <path id="Path_521" data-name="Path 521" d="M197.942,157.043a1.29,1.29,0,0,0-.968-.069c-.274.132-.415.432-.608.668-.788.964-2.306.762-3.476.337s-2.47-.984-3.6-.463c-.98.452-1.447,1.549-2.088,2.417-.91,1.232-2.165,2.2-2.268,3.519a5.357,5.357,0,0,0-3.624,9.518,8.535,8.535,0,0,1,1.883,1.584,9.364,9.364,0,0,1,.656,1.415,4.9,4.9,0,0,0,4.267,2.783,4.8,4.8,0,0,0,2.5-.678c.891-2.226,1.889-4.411,2.992-6.537a4.445,4.445,0,0,1,1.293-2.381,65.649,65.649,0,0,1,7.3-10.408Q200.11,157.8,197.942,157.043Z" transform="translate(-179.34 -156.903)" fill="#407bff"/>
              </g>
              <g id="Group_263" data-name="Group 263" transform="translate(35.679 81.655)" opacity="0.3">
                <path id="Path_522" data-name="Path 522" d="M239.056,355.079c.921,1.437.9,3.262,1.361,4.9s1.9,3.339,3.564,2.955a13.219,13.219,0,0,1,1.979-.7c.991-.065,1.814.773,2.788.961,1.648.317,3.111-1.413,3.176-3.09a8.846,8.846,0,0,0-1.676-4.669,18.075,18.075,0,0,1,10.251-.916,4.825,4.825,0,0,0-.849-2.827,107.9,107.9,0,0,1-11.265.281c-17.76-.454-34.7-10.543-45.024-25.78l-6.3,1.876c-.942.28-2.008.673-2.34,1.6a3.191,3.191,0,0,0,.367,2.283l3.681,8.474a4.579,4.579,0,0,0,1.019,1.651c1.49,1.338,3.787.263,5.767-.042,4.1-.631,7.832,2.454,10.3,5.782s4.427,7.218,7.876,9.514c2,1.329,4.947,1.9,6.622.183a31.22,31.22,0,0,0,1.784-2.769A4.462,4.462,0,0,1,239.056,355.079Z" transform="translate(-194.618 -326.197)" fill="#407bff"/>
              </g>
              <g id="Group_264" data-name="Group 264" transform="translate(108.591 105.929)" opacity="0.5">
                <path id="Path_523" data-name="Path 523" d="M362.951,377.076c-.752.688-1.147,2.046-2.163,1.973-.576-.042-.972-.568-1.38-.977a4.531,4.531,0,0,0-4.643-1.038,1.178,1.178,0,0,0-.594.389c-.235.341-.113.8-.166,1.214-.16,1.24-1.909,2.028-1.633,3.247.091.4.4.731.465,1.137.141.9-.95,1.5-1.863,1.577s-1.954-.016-2.608.624c-.869.851-.411,2.291-.032,3.447s.383,2.808-.779,3.169c-.326.1-.687.066-1.006.19-.753.292-.851,1.175-.7,2.033a74.515,74.515,0,0,0,21.255-16.7c-.2-.123-.411-.241-.626-.345C365.349,376.472,363.871,376.233,362.951,377.076Z" transform="translate(-345.785 -376.524)" fill="#407bff"/>
              </g>
            </g>
            <path id="Path_524" data-name="Path 524" d="M198.477,301.223a74.246,74.246,0,0,1-65.884-108.442,74.229,74.229,0,1,0,128.124,74.66A74.154,74.154,0,0,1,198.477,301.223Z" transform="translate(-120.646 -158.946)" fill="#407bff" opacity="0.5"/>
            <g id="Group_266" data-name="Group 266" transform="translate(7.545 67.54)">
              <path id="Path_525" data-name="Path 525" d="M136.695,271.056c.923,4.107,3.47,7.032,5.689,6.534s3.269-4.232,2.346-8.339-3.469-7.032-5.689-6.534S135.772,266.949,136.695,271.056Z" transform="translate(-136.325 -262.661)" fill="#407bff" opacity="0.5"/>
              <path id="Path_526" data-name="Path 526" d="M136.623,271.091c-.923-4.107.128-7.841,2.347-8.339a2.233,2.233,0,0,1,.433-.053c-1.932.846-2.8,4.36-1.932,8.2s3.148,6.649,5.255,6.588a2.277,2.277,0,0,1-.414.136C140.093,278.123,137.546,275.2,136.623,271.091Z" transform="translate(-136.288 -262.68)" opacity="0.2"/>
            </g>
            <g id="Group_267" data-name="Group 267" transform="translate(41.492 123.044)">
              <path id="Path_527" data-name="Path 527" d="M212.025,387.575c-4.035-2.44-6.233-6.176-4.909-8.345s5.669-1.95,9.7.489,6.233,6.176,4.909,8.345S216.06,390.015,212.025,387.575Z" transform="translate(-206.701 -377.736)" fill="#407bff" opacity="0.5"/>
              <path id="Path_528" data-name="Path 528" d="M211.964,388.825c4.035,2.44,8.38,2.659,9.7.49a2.555,2.555,0,0,0,.212-.439c-1.59,1.742-5.636,1.4-9.411-.879s-5.941-5.7-5.121-7.906a2.573,2.573,0,0,0-.293.389C205.731,382.649,207.929,386.385,211.964,388.825Z" transform="translate(-206.67 -378.955)" opacity="0.2"/>
            </g>
            <g id="Group_268" data-name="Group 268" transform="translate(9.139 60.27)">
              <path id="Path_529" data-name="Path 529" d="M139.75,248.932c.35-1.087,1.3-1.609,2.121-1.166a2.377,2.377,0,0,1,.855,2.77c-.35,1.087-1.3,1.609-2.122,1.166A2.377,2.377,0,0,1,139.75,248.932Z" transform="translate(-139.608 -247.599)" fill="#407bff" opacity="0.5"/>
              <path id="Path_530" data-name="Path 530" d="M139.724,248.912a2.377,2.377,0,0,0,.855,2.77,1.419,1.419,0,0,0,.161.074,2.447,2.447,0,0,1-.7-2.674c.327-1.017,1.18-1.539,1.961-1.239a1.471,1.471,0,0,0-.153-.1C141.023,247.3,140.074,247.825,139.724,248.912Z" transform="translate(-139.595 -247.589)" opacity="0.2"/>
            </g>
            <g id="Group_269" data-name="Group 269" transform="translate(33.813 119.541)">
              <path id="Path_531" data-name="Path 531" d="M190.909,373.456c-.405-1.547.324-2.88,1.628-2.975a3.329,3.329,0,0,1,3.1,2.628c.405,1.547-.324,2.879-1.629,2.975A3.329,3.329,0,0,1,190.909,373.456Z" transform="translate(-190.775 -370.475)" fill="#407bff" opacity="0.5"/>
              <path id="Path_532" data-name="Path 532" d="M190.863,373.454a3.329,3.329,0,0,0,3.1,2.628,1.98,1.98,0,0,0,.245-.034,3.428,3.428,0,0,1-2.843-2.631c-.379-1.448.234-2.707,1.383-2.941a2.01,2.01,0,0,0-.253,0C191.186,370.575,190.458,371.906,190.863,373.454Z" transform="translate(-190.751 -370.474)" opacity="0.2"/>
            </g>
            <g id="Group_270" data-name="Group 270" transform="translate(99.713 132.006)">
              <path id="Path_533" data-name="Path 533" d="M330.852,401.976c-1.816.457-3.368-.412-3.465-1.941s1.3-3.138,3.113-3.6,3.368.412,3.465,1.941S332.668,401.519,330.852,401.976Z" transform="translate(-327.38 -396.318)" fill="#407bff" opacity="0.5"/>
              <path id="Path_534" data-name="Path 534" d="M330.848,403.935c1.816-.457,3.21-2.067,3.113-3.6a2.3,2.3,0,0,0-.037-.287,4.014,4.014,0,0,1-3.114,3.3c-1.7.427-3.167-.306-3.428-1.654a2.417,2.417,0,0,0,0,.3C327.481,403.522,329.032,404.391,330.848,403.935Z" transform="translate(-327.379 -398.251)" opacity="0.2"/>
            </g>
            <path id="Path_535" data-name="Path 535" d="M284.215,235.078c-11.97,9.377-28.666,12.5-45.44,12.076-28.221-.722-54.367-25.765-55.215-57.146-.772-28.573,17.207-62.186,48.927-66.282l-.172-.018a64.48,64.48,0,1,0,51.9,111.37Z" transform="translate(-149.329 -123.189)" fill="#fff" opacity="0.3"/>
            <g id="Group_272" data-name="Group 272" transform="translate(33.556 0.299)">
              <g id="Group_271" data-name="Group 271">
                <path id="Path_536" data-name="Path 536" d="M239.352,123.977l.172.018v-.723A49.145,49.145,0,0,0,219.4,130.6a57.47,57.47,0,0,0-15.128,14.386,71.529,71.529,0,0,0-9.872,18.931,74.919,74.919,0,0,0-4.088,20.607A60.42,60.42,0,0,0,221.7,240.794a54.283,54.283,0,0,0,20.663,6.419,83.537,83.537,0,0,0,13.3.03,86.613,86.613,0,0,0,13.57-1.91c8.534-1.937,17.248-5.418,23.751-11.427,1.919-1.774,3.777-3.612,5.619-5.464a.362.362,0,0,0-.512-.512c-1.87,1.88-3.756,3.746-5.706,5.544a35.381,35.381,0,0,1-5.306,3.994,54.219,54.219,0,0,1-11.852,5.463,85.459,85.459,0,0,1-27.048,3.8,56.288,56.288,0,0,1-11.245-1.073,53.411,53.411,0,0,1-10.255-3.249,58.957,58.957,0,0,1-18-12.207,60.525,60.525,0,0,1-12.695-18.289,57.973,57.973,0,0,1-5.031-22.461,72.007,72.007,0,0,1,2.576-20.275,73.4,73.4,0,0,1,8.318-19.31,60.41,60.41,0,0,1,13.68-15.616,48.172,48.172,0,0,1,24-10.261.362.362,0,0,0,0-.723l-.172-.018c-.463-.048-.459.675,0,.723Z" transform="translate(-190.217 -123.251)" fill="#fff"/>
              </g>
            </g>
          </g>
        </g>
      </g>
      <g id="Group_257" data-name="Group 257" transform="translate(0 84.505)">
        <g id="Group_255" data-name="Group 255">
          <g id="Group_253" data-name="Group 253">
            <path id="Path_513" data-name="Path 513" d="M121.149,313.712a11.893,11.893,0,0,0-3.093-11.632,10.521,10.521,0,0,0-11.727-1.774,9.446,9.446,0,0,0-4.676,10.686,8.2,8.2,0,0,0-8.112-1.353,5.97,5.97,0,0,0-7.634-8.207,14.24,14.24,0,0,0-5.236-12.038A12.2,12.2,0,0,0,67.8,288.122a10.689,10.689,0,0,0-5.381,11.5,11.379,11.379,0,0,0-8.4,2.963c-2.136,2.182-2.844,5.882-1.067,8.366-3.993-1.607-11.205-.178-12.566,6.344l91.338.91A7.738,7.738,0,0,0,121.149,313.712Z" transform="translate(-40.391 -286.843)" fill="#407bff"/>
          </g>
          <g id="Group_254" data-name="Group 254" opacity="0.8">
            <path id="Path_514" data-name="Path 514" d="M121.149,313.712a11.893,11.893,0,0,0-3.093-11.632,10.521,10.521,0,0,0-11.727-1.774,9.446,9.446,0,0,0-4.676,10.686,8.2,8.2,0,0,0-8.112-1.353,5.97,5.97,0,0,0-7.634-8.207,14.24,14.24,0,0,0-5.236-12.038A12.2,12.2,0,0,0,67.8,288.122a10.689,10.689,0,0,0-5.381,11.5,11.379,11.379,0,0,0-8.4,2.963c-2.136,2.182-2.844,5.882-1.067,8.366-3.993-1.607-11.205-.178-12.566,6.344l91.338.91A7.738,7.738,0,0,0,121.149,313.712Z" transform="translate(-40.391 -286.843)" fill="#fff"/>
          </g>
        </g>
        <g id="Group_256" data-name="Group 256" transform="translate(0.001 0.004)" opacity="0.3">
          <path id="Path_515" data-name="Path 515" d="M94.8,317.842s-33.557-2.178-39.494-1.984a4.239,4.239,0,0,1,4.887-3.936A8,8,0,0,1,68.1,300.912a9.776,9.776,0,0,1,6.424-13.98,11.489,11.489,0,0,0-6.722,1.193,10.689,10.689,0,0,0-5.381,11.5,11.378,11.378,0,0,0-8.4,2.963c-2.136,2.182-2.844,5.882-1.067,8.366-3.993-1.607-11.205-.178-12.566,6.344l54.408.542Z" transform="translate(-40.392 -286.848)" fill="#407bff"/>
        </g>
      </g>
    </g>
  </g>
</svg>
